<svg aria-hidden="true" style="position: absolute; width: 0; height: 0; overflow: hidden;" version="1.1" xmlns="http://www.w3.org/2000/svg" xmlns:xlink="http://www.w3.org/1999/xlink">
<defs>
<symbol id="facebook" viewBox="0 0 32 32">
<path fill="#" style="fill: var(--color1, #)" d="M16 32c8.837 0 16-7.163 16-16s-7.163-16-16-16-16 7.163-16 16 7.163 16 16 16z"></path>
<path fill="#fff" style="fill: var(--color2, #fff)" d="M20.446 15.981h-2.611v9.619h-3.955v-9.619h-1.88v-3.379h1.88v-2.187c0-1.564 0.739-4.014 3.991-4.014l2.929 0.012v3.281h-2.125c-0.348 0-0.839 0.176-0.839 0.922v1.989h2.955l-0.345 3.377z"></path>
</symbol>
<symbol id="telegram" viewBox="0 0 32 32">
<path fill="#" style="fill: var(--color1, #)" d="M32 16c0 8.837-7.163 16-16 16s-16-7.163-16-16c0-8.837 7.163-16 16-16s16 7.163 16 16z"></path>
<path fill="#fff" style="fill: var(--color2, #fff)" d="M12.867 18.376l-0.317 4.169c0.455 0 0.651-0.183 0.888-0.401l2.13-1.901 4.414 3.018c0.809 0.421 1.381 0.199 1.6-0.696l2.897-12.673c0.258-1.117-0.433-1.554-1.221-1.28l-17.032 6.086c-1.162 0.422-1.145 1.026-0.198 1.301l4.355 1.264 10.114-5.907c0.476-0.295 0.909-0.132 0.553 0.163l-8.182 6.856z"></path>
</symbol>
<symbol id="github" viewBox="0 0 32 32">
<path fill="#" style="fill: var(--color1, #)" d="M32 16c0 8.837-7.163 16-16 16s-16-7.163-16-16c0-8.837 7.163-16 16-16s16 7.163 16 16z"></path>
<path fill="#fff" style="fill: var(--color2, #fff)" d="M16 6.588c-5.17 0-9.412 4.242-9.412 9.412 0 4.411 3.096 8.419 7.206 9.412v-3.113c-0.408 0.088-0.781 0.091-1.196-0.031-0.556-0.164-1.008-0.535-1.344-1.099-0.214-0.36-0.593-0.753-0.988-0.724l-0.097-1.098c0.856-0.073 1.594 0.521 2.033 1.258 0.196 0.328 0.421 0.52 0.709 0.605 0.278 0.083 0.577 0.043 0.925-0.080 0.088-0.697 0.408-0.958 0.649-1.327-2.452-0.365-3.429-1.666-3.816-2.692-0.514-1.364-0.238-3.066 0.67-4.143 0.018-0.021 0.050-0.075 0.038-0.113-0.417-1.259 0.090-2.3 0.109-2.41 0.481 0.141 0.559-0.143 2.089 0.786l0.264 0.159c0.111 0.066 0.075 0.028 0.186 0.019 0.59-0.166 1.269-0.266 1.97-0.276l0.006-0c0.668 0.008 1.336 0.104 2.002 0.284l0.086 0.009c-0.008-0.002 0.024-0.006 0.075-0.037 1.911-1.158 1.842-0.779 2.355-0.946 0.019 0.111 0.519 1.169 0.106 2.411-0.056 0.171 1.656 1.739 0.708 4.256-0.388 1.026-1.365 2.328-3.816 2.693 0.314 0.48 0.692 0.734 0.69 1.722v3.886c4.109-0.993 7.206-5 7.206-9.412 0-5.17-4.242-9.412-9.412-9.412z"></path>
</symbol>
<symbol id="icon-close" viewBox="0 0 32 32">
<path fill="none"  stroke-linejoin="miter" stroke-linecap="butt" stroke-miterlimit="4" stroke-width="2" d="M2.519 2l26.963 28"></path>
<path fill="none"  stroke-linejoin="miter" stroke-linecap="butt" stroke-miterlimit="4" stroke-width="2" d="M2 29.481l28-26.963"></path>
</symbol>
<symbol id="icon-open-menu" viewBox="0 0 46 32">
<path fill="none" stroke-linejoin="miter" stroke-linecap="butt" stroke-miterlimit="4" stroke-width="2.2857" d="M0 2.286h45.714"></path>
<path fill="none" stroke-linejoin="miter" stroke-linecap="butt" stroke-miterlimit="4" stroke-width="2.2857" d="M0 16h45.714"></path>
<path fill="none" stroke-linejoin="miter" stroke-linecap="butt" stroke-miterlimit="4" stroke-width="2.2857" d="M0 29.714h45.714"></path>
</symbol>
<symbol id="than-icon" viewBox="0 0 26 32">
<path fill="none" stroke-linejoin="round" stroke-linecap="round" stroke-miterlimit="4" stroke-width="6.4" d="M5.171 3.2l14.17 12.8-14.17 12.8"></path>
</symbol>
<symbol id="udder" viewBox="0 0 21 32">
<path d="M17.696 8.501c0.846 0.14 1.62-0.058 2.151-0.551s0.777-1.24 0.682-2.077c-0.090-0.798-0.482-1.616-1.095-2.289 0.483-0.806 0.794-1.671 0.915-2.639 0.065-0.519-0.374-0.945-0.907-0.945h-18.325c-0.533 0-0.972 0.426-0.907 0.945 0.128 1.023 0.468 1.93 0.999 2.775-0.544 0.646-0.891 1.408-0.975 2.153-0.095 0.837 0.151 1.585 0.682 2.077s1.305 0.691 2.151 0.551c0.77-0.128 1.543-0.527 2.177-1.119 0.823 0.425 1.708 0.744 2.63 0.948 0.040 0.874 0.324 1.701 0.802 2.323 0.517 0.672 1.218 1.050 1.949 1.050s1.432-0.378 1.949-1.050c0.51-0.664 0.8-1.562 0.807-2.5 0.721-0.209 1.414-0.491 2.067-0.84 0.647 0.63 1.449 1.055 2.249 1.188zM2.271 4.583l0.629-0.747-0.518-0.825c-0.328-0.523-0.563-1.067-0.702-1.657h17.199c-0.129 0.55-0.341 1.057-0.633 1.545l-0.509 0.851 0.669 0.736c0.448 0.492 0.698 1.054 0.753 1.537 0.056 0.498-0.099 0.796-0.259 0.945s-0.472 0.284-0.975 0.2c-0.484-0.080-1.036-0.354-1.508-0.814l-0.728-0.709-0.901 0.482c-0.566 0.303-1.169 0.548-1.798 0.73l-0.98 0.284-0.008 1.003c-0.005 0.687-0.22 1.293-0.529 1.695-0.308 0.4-0.629 0.512-0.849 0.512s-0.541-0.112-0.849-0.512c-0.289-0.376-0.497-0.931-0.526-1.569l-0.047-1.033-1.027-0.227c-0.805-0.178-1.576-0.456-2.29-0.825l-0.875-0.452-0.716 0.669c-0.462 0.432-0.992 0.688-1.457 0.765-0.503 0.083-0.815-0.051-0.975-0.2s-0.315-0.446-0.259-0.945c0.051-0.45 0.272-0.97 0.667-1.44z"></path>
<path d="M1.293 12.651c-0.596 0-1.383 0.526-1.284 1.104l2.983 17.455c0.078 0.456 0.48 0.79 0.951 0.79h13.34c0.338 0 0.626-0.241 0.68-0.569l2.896-17.682c0.094-0.576-0.025-1.098-0.619-1.098h-18.947zM4.063 18.618c-1.323-1.264-2.18-2.882-2.475-4.614h17.545c-0.295 1.731-1.152 3.349-2.475 4.614-1.664 1.59-3.928 2.49-6.297 2.49s-4.633-0.9-6.297-2.49zM17.618 19.588c0.4-0.383 0.764-0.793 1.089-1.228l-2.012 12.287h-12.403l-2.049-11.991c0.264 0.326 0.551 0.637 0.859 0.932 1.925 1.84 4.536 2.873 7.258 2.873s5.333-1.034 7.258-2.873z"></path>
</symbol>
<symbol id="apple" viewBox="0 0 28 32">
<path d="M21.593 5.819c0.229 0.754 0.298 1.657 0.198 2.61-0.109 1.044-0.413 2.097-0.863 3.012h0.246c0.631 0 1.113 0.555 1.013 1.166l-1.563 8.818 0.254-0.626c0.039 0.016 0.656 0.275 1.161 0.981 0.176-0.402 0.455-0.753 0.835-1.044 0.64-0.49 1.401-0.694 1.81-0.804 0.016-0.004 0.032-0.009 0.047-0.013s0.028-0.008 0.041-0.011c0.012-0.003 0.023-0.006 0.033-0.009l0.593-0.168-0.095 0.609c-0.002 0.011-0.004 0.023-0.005 0.036-0.004 0.027-0.008 0.056-0.013 0.087l-0 0.001c-0.059 0.419-0.17 1.2-0.579 1.894-0.055 0.094-0.115 0.183-0.178 0.267 0.554-0.033 1.117 0.050 1.74 0.448 0.552 0.352 0.963 0.931 1.189 1.675 0.198 0.65 0.257 1.428 0.171 2.25-0.109 1.038-0.439 2.085-0.931 2.949-0.55 0.966-1.256 1.633-2.042 1.928-0.765 0.287-1.266 0.020-1.669-0.195l-0-0-0-0c-0.25-0.133-0.466-0.248-0.745-0.248s-0.495 0.115-0.745 0.248c-0.277 0.148-0.601 0.32-1.024 0.32-0.192 0-0.406-0.036-0.644-0.125-0.255-0.096-0.502-0.231-0.737-0.402-0.087 0.308-0.374 0.527-0.706 0.527h-14.185c-0.501 0-0.929-0.355-1.011-0.84l-3.172-18.547c-0.072-0.419 0.131-0.813 0.468-1.021-0.012-0.047-0.025-0.103-0.040-0.168-0.204-0.879-0.126-1.699 0.224-2.373 0.62-1.193 1.54-1.525 2.514-1.876 0.296-0.107 0.598-0.216 0.905-0.354-0.951-0.817-1.925-0.694-1.936-0.693l-0.126-0.908c0.048-0.007 0.819-0.104 1.735 0.312-0.056-0.506 0.021-1.021 0.234-1.534 0.358-0.863 1.005-1.51 1.352-1.858l0.011-0.011 0-0c0.034-0.034 0.065-0.065 0.092-0.092l0.498-0.512 0.257 0.666c0.015 0.039 0.033 0.084 0.053 0.134l0.001 0.001c0.183 0.456 0.524 1.304 0.516 2.239-0.001 0.127-0.009 0.25-0.023 0.372 0.537-0.354 1.151-0.598 2.007-0.56 0.418 0.018 0.834 0.131 1.233 0.332 0.214-0.346 0.489-0.581 0.884-0.833 1.134-0.723 2.096-0.55 3.115-0.367 0.31 0.056 0.626 0.113 0.96 0.147-0.416-1.184-1.32-1.565-1.331-1.569l0.345-0.849c0.045 0.018 0.761 0.32 1.347 1.138 0.204-0.466 0.528-0.874 0.969-1.211 0.742-0.568 1.625-0.805 2.099-0.933l0.015-0.004c0.047-0.013 0.089-0.024 0.125-0.034l0.687-0.194-0.11 0.706c-0.006 0.041-0.013 0.089-0.021 0.142l-0 0.002c-0.069 0.486-0.197 1.392-0.672 2.197-0.064 0.109-0.133 0.212-0.206 0.31 0.642-0.038 1.296 0.059 2.018 0.519 0.64 0.408 1.117 1.080 1.38 1.943zM18.214 23.073c0.267-0.17 0.522-0.283 0.771-0.353l0.914-5.213c-0.346 0.461-0.733 0.898-1.158 1.305-2.047 1.955-4.823 3.053-7.718 3.053s-5.671-1.098-7.718-3.053c-0.328-0.313-0.632-0.644-0.913-0.99l2.179 12.741h13.616c-0.141-0.189-0.275-0.394-0.401-0.616-0.492-0.864-0.823-1.911-0.931-2.949-0.086-0.822-0.027-1.6 0.171-2.25 0.226-0.744 0.638-1.323 1.189-1.675zM20.899 22.756l0 0c0.267 0.048 0.54 0.097 0.828 0.126-0.324-0.924-0.994-1.28-1.125-1.343l-0.201 1.132c0.165 0.024 0.33 0.054 0.497 0.084zM19.889 11.44c0.009-0.015 0.017-0.030 0.026-0.045 0.509-0.894 0.852-1.982 0.965-3.062 0.181-1.729-0.252-3.106-1.159-3.684-0.831-0.53-1.514-0.407-2.46-0.237l-0 0c-0.502 0.090-1.071 0.193-1.718 0.193s-1.216-0.102-1.718-0.193l-0-0c-0.945-0.17-1.628-0.293-2.46 0.237-0.358 0.299-0.442 0.539-0.403 0.759 0.559 0.535 1.054 1.268 1.435 2.122 0.128 0.288 0.241 0.585 0.339 0.887 0.001 0.002 0.002 0.004 0.003 0.006s0.002 0.004 0.004 0.006c0.122 0.215 0.19 0.523 0.231 0.873 0.126 0.581 0.193 1.167 0.196 1.731 0.001 0.168-0.003 0.301-0.013 0.408h6.732zM12.227 11.44c0.019-0.105 0.028-0.236 0.027-0.402-0.006-1.029-0.252-2.143-0.694-3.135-0.263-0.59-0.575-1.096-0.918-1.5-0.202-0.195-0.415-0.38-0.62-0.557-0.072-0.063-0.144-0.125-0.213-0.185-0.354-0.224-0.723-0.351-1.094-0.368-0.985-0.043-1.515 0.405-2.249 1.025l-0 0c-0.39 0.329-0.831 0.703-1.391 1.026s-1.104 0.52-1.584 0.693l-0 0-0 0c-0.904 0.326-1.556 0.561-2.012 1.436-0.377 0.726-0.456 1.175-0.023 1.966h10.771zM16.834 1.893c-0.583 0.447-0.869 1.026-0.867 1.762 0.731-0.087 1.272-0.441 1.644-1.074 0.249-0.423 0.383-0.905 0.463-1.306-0.389 0.128-0.851 0.319-1.24 0.618zM4.839 4.35c-0.282 0.678-0.24 1.323 0.13 1.96 0.59-0.442 0.881-1.018 0.888-1.753 0.005-0.491-0.12-0.975-0.252-1.363-0.273 0.305-0.577 0.703-0.766 1.156zM1.694 12.878c0.314 1.84 1.225 3.559 2.632 4.902 1.769 1.69 4.178 2.646 6.697 2.646s4.927-0.956 6.697-2.646c1.407-1.344 2.318-3.063 2.632-4.902h-18.657zM23.355 21.362c-0.503 0.385-0.749 0.884-0.748 1.52 0.631-0.075 1.096-0.38 1.418-0.926 0.215-0.364 0.33-0.78 0.399-1.126-0.335 0.11-0.734 0.275-1.069 0.533zM26.843 26.916c0.156-1.49-0.218-2.678-0.999-3.177-0.717-0.457-1.306-0.351-2.121-0.205l-0 0c-0.433 0.078-0.923 0.166-1.481 0.166s-1.048-0.088-1.481-0.166l-0-0-0-0c-0.815-0.147-1.404-0.253-2.121 0.205-0.782 0.499-1.155 1.686-0.999 3.177 0.097 0.931 0.393 1.869 0.832 2.64 0.458 0.804 1.022 1.35 1.633 1.579 0.43 0.162 0.665 0.037 1.020-0.152 0.285-0.152 0.64-0.341 1.117-0.341s0.831 0.189 1.117 0.341l0 0c0.355 0.189 0.589 0.314 1.020 0.152 0.611-0.229 1.175-0.775 1.633-1.579 0.439-0.771 0.735-1.709 0.832-2.64z"></path>
</symbol>
<symbol id="icecream" viewBox="0 0 27 32">
<path d="M10.949 22.437c-3.887-2.337-10.949-7.95-10.949-13.365 0-6.864 7.191-13.155 12.815-5.719 0.257 0.34 0.777 0.339 1.033-0.002 5.551-7.391 12.818-1.142 12.818 5.721 0 5.382-6.976 10.96-10.877 13.322v9.606h-4.841v-9.563zM22.483 13.448c-0.262-0.28-0.427-0.618-0.543-0.92-0.117-0.305-0.204-0.635-0.28-0.93-0.010-0.039-0.020-0.077-0.029-0.114-0.15-0.589-0.264-1.035-0.457-1.364-0.091-0.155-0.179-0.244-0.262-0.296-0.078-0.049-0.199-0.097-0.409-0.097-0.225 0-0.327 0.048-0.372 0.077s-0.1 0.083-0.158 0.206c-0.143 0.302-0.196 0.747-0.271 1.421l-0.003 0.024c-0.064 0.573-0.152 1.357-0.495 1.983-0.188 0.344-0.462 0.662-0.857 0.884-0.391 0.22-0.842 0.313-1.337 0.306s-0.942-0.113-1.328-0.337c-0.389-0.226-0.661-0.542-0.852-0.884-0.354-0.637-0.448-1.426-0.515-2.003l-0.003-0.027c-0.077-0.658-0.128-1.090-0.264-1.388-0.056-0.123-0.107-0.171-0.142-0.195-0.033-0.022-0.119-0.067-0.323-0.067-0.201 0-0.304 0.044-0.361 0.080-0.061 0.039-0.131 0.107-0.206 0.244-0.172 0.312-0.266 0.756-0.402 1.399l-0.010 0.049c-0.124 0.585-0.291 1.362-0.695 1.979-0.214 0.328-0.504 0.627-0.896 0.839-0.391 0.212-0.839 0.312-1.336 0.312-0.494 0-0.944-0.099-1.331-0.327-0.392-0.231-0.657-0.556-0.834-0.904-0.313-0.614-0.382-1.376-0.432-1.934-0.002-0.022-0.004-0.044-0.006-0.066-0.061-0.666-0.111-1.094-0.252-1.377-0.056-0.112-0.112-0.167-0.17-0.203-0.063-0.038-0.194-0.091-0.457-0.091-0.25 0-0.376 0.054-0.442 0.095s-0.134 0.112-0.203 0.249c-0.149 0.296-0.212 0.693-0.301 1.253-0.010 0.063-0.021 0.129-0.032 0.197-0.048 0.298-0.109 0.639-0.209 0.958s-0.259 0.678-0.544 0.976c-0.218 0.229-0.468 0.382-0.743 0.473 0.989 1.319 2.246 2.591 3.571 3.733 1.513 1.305 3.065 2.4 4.304 3.162 0.621 0.382 1.143 0.668 1.527 0.852 0.003 0.002 0.007 0.003 0.010 0.005h0.403c0.003-0.002 0.007-0.003 0.010-0.005 0.384-0.184 0.907-0.47 1.527-0.852 1.239-0.762 2.791-1.857 4.304-3.162 1.353-1.167 2.635-2.469 3.634-3.818-0.201-0.1-0.377-0.235-0.527-0.396zM12.774 23.4h-0.127v6.88h1.444v-6.88h-0.198c-0.258 0.106-0.449 0.162-0.559 0.162s-0.302-0.056-0.559-0.162zM23.797 12.309c0.035 0.004 0.104 0.005 0.216-0.020 0.628-1.148 0.955-2.232 0.955-3.218 0-2.884-1.549-5.566-3.491-6.723-0.934-0.557-1.92-0.744-2.898-0.512-0.987 0.234-2.168 0.943-3.38 2.556-0.934 1.244-2.794 1.248-3.733 0.006-1.232-1.628-2.424-2.344-3.415-2.58-0.98-0.233-1.96-0.046-2.887 0.511-1.929 1.158-3.466 3.849-3.466 6.743 0 0.976 0.32 2.046 0.935 3.18 0.238 0.060 0.391 0.066 0.481 0.056 0.092-0.010 0.114-0.034 0.127-0.047l0.001-0.001c0.031-0.033 0.087-0.115 0.147-0.303s0.104-0.42 0.151-0.713c0.010-0.061 0.020-0.126 0.030-0.194 0.078-0.509 0.185-1.201 0.465-1.758 0.173-0.344 0.429-0.681 0.814-0.926s0.84-0.358 1.344-0.358c0.49 0 0.938 0.1 1.322 0.331 0.389 0.233 0.649 0.561 0.822 0.908 0.302 0.606 0.369 1.358 0.419 1.912l0.001 0.006c0.002 0.026 0.005 0.051 0.007 0.075 0.060 0.663 0.113 1.089 0.256 1.37 0.057 0.111 0.115 0.169 0.178 0.206 0.069 0.040 0.207 0.094 0.477 0.094 0.268 0 0.431-0.053 0.536-0.109 0.103-0.056 0.194-0.14 0.28-0.272 0.197-0.302 0.314-0.751 0.45-1.391 0.010-0.046 0.020-0.094 0.030-0.143l0-0.002c0.113-0.54 0.257-1.229 0.559-1.778 0.177-0.322 0.428-0.637 0.791-0.866 0.367-0.232 0.792-0.341 1.26-0.341 0.465 0 0.893 0.107 1.258 0.351 0.363 0.242 0.596 0.574 0.749 0.907 0.256 0.559 0.336 1.257 0.397 1.791 0.006 0.050 0.011 0.098 0.017 0.145 0.076 0.643 0.149 1.076 0.309 1.363 0.067 0.12 0.137 0.19 0.219 0.238 0.085 0.049 0.235 0.105 0.504 0.108s0.413-0.048 0.488-0.090c0.071-0.040 0.135-0.101 0.197-0.215 0.153-0.28 0.222-0.711 0.295-1.367 0.004-0.039 0.009-0.080 0.013-0.121 0.060-0.546 0.139-1.268 0.413-1.848 0.161-0.34 0.404-0.672 0.777-0.913s0.81-0.347 1.286-0.347c0.49 0 0.929 0.119 1.307 0.357 0.372 0.234 0.635 0.553 0.826 0.879 0.325 0.554 0.498 1.242 0.629 1.765 0.014 0.055 0.027 0.108 0.040 0.159 0.076 0.296 0.142 0.539 0.22 0.741 0.078 0.205 0.146 0.31 0.193 0.36 0.029 0.031 0.044 0.038 0.079 0.042z"></path>
</symbol>
<symbol id="icon-quotes" viewBox="0 0 43 32">
<path d="M32.014 0c1.929 0 3.75 0.52 5.464 1.561s3.107 2.537 4.179 4.488c1.029 1.951 1.543 4.249 1.543 6.894s-0.643 5.225-1.929 7.74c-0.429 0.911-1.2 2.081-2.314 3.512-1.157 1.431-2.229 2.667-3.214 3.707l-4.050 4.098-2.893-4.813c2.014-1.257 3.793-2.818 5.336-4.683 1.543-1.821 2.314-3.491 2.314-5.008 0-0.78-0.171-1.409-0.514-1.886-1.5 1.084-3.171 1.626-5.014 1.626-1.329 0-2.593-0.412-3.793-1.236-1.243-0.78-2.229-1.821-2.957-3.122-0.771-1.258-1.157-2.558-1.157-3.902 0-1.518 0.45-2.97 1.35-4.358 0.857-1.388 1.993-2.515 3.407-3.382 1.371-0.824 2.786-1.236 4.243-1.236zM8.936 0c1.929 0 3.75 0.52 5.464 1.561s3.107 2.537 4.179 4.488c1.029 1.951 1.543 4.249 1.543 6.894 0 1.864-0.236 3.534-0.707 5.008-0.471 1.518-1.286 3.1-2.443 4.748-1.114 1.561-2.164 2.862-3.15 3.902-0.986 1.084-2.7 2.884-5.143 5.398l-2.893-4.813c2.014-1.257 3.793-2.818 5.336-4.683 1.543-1.821 2.314-3.491 2.314-5.008 0-0.78-0.171-1.409-0.514-1.886-1.5 1.084-3.171 1.626-5.014 1.626-1.329 0-2.593-0.412-3.793-1.236-1.243-0.78-2.229-1.821-2.957-3.122-0.771-1.258-1.157-2.558-1.157-3.902 0-1.518 0.429-2.97 1.286-4.358s1.993-2.515 3.407-3.382c1.371-0.824 2.786-1.236 4.243-1.236z"></path>
</symbol>
<symbol id="icon-home" viewBox="0 0 35 32">
<path fill="#d31342" style="fill: var(--color2, #d31342)" d="M34.253 15.613c0.257-0.279 0.414-0.654 0.414-1.064 0-0.475-0.21-0.901-0.543-1.19l-0.002-0.002-14.773-12.925c-0.318-0.269-0.732-0.432-1.184-0.432-0.467 0-0.893 0.174-1.217 0.46l0.002-0.002-14.821 13.589c-0.316 0.288-0.513 0.701-0.513 1.16 0 0.424 0.168 0.809 0.442 1.091l-0-0 0.373 0.387c0.613 0.64 1.611 0.72 2.224 0.171l1.107-0.992v14.523c0 0.893 0.72 1.613 1.613 1.613h5.773c0.891 0 1.613-0.72 1.613-1.613v-10.16h7.373v10.16c-0.013 0.891 0.624 1.613 1.515 1.613h6.123c0.891 0 1.611-0.72 1.611-1.613v-14.32l0.685 0.603c0.376 0.331 1.168 0.064 1.765-0.595l0.421-0.461z"></path>
</symbol>
<symbol id="icon-ring" viewBox="0 0 32 32">
<path fill="#d9d9d9" style="fill: var(--color3, #d9d9d9)" d="M32 16c0 8.837-7.163 16-16 16s-16-7.163-16-16c0-8.837 7.163-16 16-16s16 7.163 16 16z"></path>
</symbol>
<symbol id="icon-rings" viewBox="0 0 256 32">
<path fill="#c7133e" style="fill: var(--color1, #c7133e)" d="M144 16c0 8.837-7.163 16-16 16s-16-7.163-16-16c0-8.837 7.163-16 16-16s16 7.163 16 16z"></path>
<path fill="#c7133e" style="fill: var(--color1, #c7133e)" d="M32 16c0 8.837-7.163 16-16 16s-16-7.163-16-16c0-8.837 7.163-16 16-16s16 7.163 16 16z"></path>
<path fill="#c7133e" style="fill: var(--color1, #c7133e)" d="M256 16c0 8.837-7.163 16-16 16s-16-7.163-16-16c0-8.837 7.163-16 16-16s16 7.163 16 16z"></path>
</symbol>
<symbol id="icon-home-reviews" viewBox="0 0 35 32">
<path fill="#d31342" style="fill: var(--color1, #d31342)" d="M34.253 15.613c0.599-0.659 0.541-1.669-0.129-2.255l-14.772-12.926c-0.671-0.586-1.745-0.574-2.402 0.028l-14.822 13.587c-0.656 0.602-0.689 1.611-0.071 2.252l0.372 0.387c0.617 0.642 1.613 0.718 2.224 0.17l1.108-0.992v14.523c0 0.891 0.722 1.613 1.612 1.613h5.778c0.89 0 1.612-0.721 1.612-1.613v-10.16h7.37v10.16c-0.013 0.89 0.624 1.612 1.515 1.612h6.123c0.89 0 1.613-0.722 1.613-1.613v-14.318c0 0 0.306 0.268 0.683 0.6s1.168 0.066 1.767-0.594l0.42-0.462z"></path>
</symbol>
</defs>
</svg>
