<svg width="80" height="80" xmlns="http://www.w3.org/2000/svg">
    <defs>
        <symbol id="logo" viewBox="0 0 32 32">
            <path fill="#ffc107" d="M16 23.003l-3.002-7.339h6.005z"></path>
            <path fill="#ea9024" d="M16.534 19.667l0.732-0.731 0.281 0.281 0.274-0.67-0.083-0.083 0.199-0.201 0.653-1.596-0.136 0.136-0.744-0.743 0.395-0.395h-1.733l0.395 0.395-0.717 0.717-0.745-0.747 0.364-0.365h-1.673l0.365 0.365-0.731 0.731-0.313-0.313 0.653 1.596 0.407 0.407-0.171 0.169 0.274 0.67 0.369-0.367 0.744 0.743-0.68 0.68 0.973 2.38 0.167-0.167 0.091 0.091 0.98-2.395zM17.239 16.532l0.744 0.743-0.717 0.718-0.744-0.744zM14.101 17.233l0.731-0.731 0.747 0.747-0.731 0.731zM15.32 18.451l0.731-0.731 0.744 0.744-0.732 0.731zM15.32 20.883l0.743-0.744 0.734 0.734-0.744 0.743z"></path>
            <path fill="#68352a" d="M18.002 16.666c-0.437 0-0.847-0.107-1.212-0.293 0.184-0.215 0.34-0.454 0.472-0.708h-1.186c-0.026 0.031-0.050 0.063-0.076 0.093-0.026-0.030-0.050-0.061-0.076-0.093h-1.186c0.13 0.254 0.288 0.493 0.472 0.708-0.365 0.186-0.775 0.293-1.212 0.293-0.215 0-0.422-0.029-0.623-0.076l0.437 1.067c0.063 0.003 0.124 0.009 0.186 0.009 0.739 0 1.426-0.222 2.002-0.598 0.576 0.377 1.263 0.598 2.002 0.598 0.063 0 0.124-0.006 0.186-0.009l0.437-1.067c-0.201 0.047-0.408 0.076-0.623 0.076z"></path>
            <path fill="#e91e63" d="M18.669 11.334c0 1.474-1.195 2.669-2.669 2.669s-2.669-1.195-2.669-2.669c0-1.474 1.195-2.669 2.669-2.669s2.669 1.195 2.669 2.669z"></path>
            <path fill="#ffe0b2" d="M20.669 14c0 1.474-1.195 2.669-2.669 2.669s-2.669-1.195-2.669-2.669c0-1.474 1.195-2.669 2.669-2.669s2.669 1.195 2.669 2.669z"></path>
            <path fill="#ff80ab" d="M16.669 14c0 1.474-1.195 2.669-2.669 2.669s-2.669-1.195-2.669-2.669c0-1.474 1.195-2.669 2.669-2.669s2.669 1.195 2.669 2.669z"></path>
        </symbol>
    </defs>
</svg>