<?xml version="1.0" encoding="UTF-8" standalone="no" ?>
<!DOCTYPE svg PUBLIC "-//W3C//DTD SVG 1.1//EN" "http://www.w3.org/Graphics/SVG/1.1/DTD/svg11.dtd">
<svg xmlns="http://www.w3.org/2000/svg" xmlns:xlink="http://www.w3.org/1999/xlink" version="1.1" width="500" height="500" viewBox="0 0 500 500" xml:space="preserve">
<desc>Created with Fabric.js 4.6.0</desc>
<defs>
</defs>
<g transform="matrix(1 0 0 1 201.37 676.58)" id="8Vq_slALwYYOQ8_doHkv1"  >
<path style="stroke: rgb(0,0,0); stroke-width: 1; stroke-dasharray: none; stroke-linecap: butt; stroke-dashoffset: 0; stroke-linejoin: miter; stroke-miterlimit: 4; fill: rgb(255,255,255); fill-opacity: 0; fill-rule: nonzero; opacity: 1;" vector-effect="non-scaling-stroke"  transform=" translate(0, 0)" d="M 0 0" stroke-linecap="round" />
</g>
<g transform="matrix(1 0 0 1 260.73 509.41)" id="-Urna4sVouorpnQxM6qN_"  >
<path style="stroke: rgb(0,0,0); stroke-width: 1; stroke-dasharray: none; stroke-linecap: round; stroke-dashoffset: 0; stroke-linejoin: round; stroke-miterlimit: 10; fill: none; fill-rule: nonzero; opacity: 1;" vector-effect="non-scaling-stroke"  transform=" translate(-306.96, -135.08)" d="M 306.95978431372555 135.0805340703921 L 306.9617843137255 135.0805340703921" stroke-linecap="round" />
</g>
<g transform="matrix(1 0 0 1 181.37 659.65)" id="oBEjoPiv4ixGE7HJBv_bF"  >
<path style="stroke: rgb(0,0,0); stroke-width: 10; stroke-dasharray: none; stroke-linecap: butt; stroke-dashoffset: 0; stroke-linejoin: miter; stroke-miterlimit: 4; fill: rgb(255,255,255); fill-opacity: 0; fill-rule: nonzero; opacity: 1;" vector-effect="non-scaling-stroke"  transform=" translate(0, 0)" d="M -56.37255 -47.9944 L 56.37255 -47.9944 L 39.215689999999995 47.9944 L -40.784310000000005 47.9944 z" stroke-linecap="round" />
</g>
<g transform="matrix(1 0 0 1 182.16 637.42)" id="ZaTHnyMTiJJpC_-7GswZv"  >
<path style="stroke: rgb(0,0,0); stroke-width: 10; stroke-dasharray: none; stroke-linecap: butt; stroke-dashoffset: 0; stroke-linejoin: miter; stroke-miterlimit: 4; fill: rgb(255,255,255); fill-opacity: 0; fill-rule: nonzero; opacity: 1;" vector-effect="non-scaling-stroke"  transform=" translate(0, 0)" d="M -55.67227 -25.26503 L -44.029619999999994 -1.2322299999999977 C -44.029619999999994 -1.2322299999999977 -35.48814999999999 11.955660000000002 -24.676829999999995 18.552500000000002 C -13.865499999999995 25.149340000000002 -0.7843199999999939 25.155130000000003 -0.7843199999999939 25.155130000000003 C -0.7843199999999939 25.155130000000003 11.167970000000006 27.112250000000003 25.282110000000007 14.507200000000003 C 39.396260000000005 1.902160000000002 55.67226000000001 -25.265039999999992 55.67226000000001 -25.265039999999992" stroke-linecap="round" />
</g>
<g transform="matrix(1 0 0 1 181.15 564.33)" id="Q_za9ij1_wu9WeaJLP8Ed"  >
<path style="stroke: rgb(0,0,0); stroke-width: 10; stroke-dasharray: none; stroke-linecap: butt; stroke-dashoffset: 0; stroke-linejoin: miter; stroke-miterlimit: 4; fill: rgb(255,255,255); fill-opacity: 0; fill-rule: nonzero; opacity: 1;" vector-effect="non-scaling-stroke"  transform=" translate(0, 0)" d="M -47.6285 -30.46905 L 44.66078 -30.46905 L 36.25742 -13.66233 L 46.97043000000001 -5.3531900000000014 C 46.97043000000001 -5.3531900000000014 49.024910000000006 3.276989999999998 45.873650000000005 6.953469999999999 C 42.722390000000004 10.62994 33.456300000000006 8.74664 33.456300000000006 8.74664 L 21.509520000000006 -1.6511200000000006 L 11.047340000000005 4.54496 L 9.646780000000005 22.75224 C 9.646780000000005 22.75224 6.236420000000005 30.45532 1.5095300000000051 30.45532 C 0.49858000000000513 30.45532 -2.7413199999999946 30.73999 -5.293299999999995 28.71606 C -7.583549999999995 26.8997 -9.260779999999995 22.75224 -9.260779999999995 22.75224 L -9.961059999999994 5.945520000000002 L -22.566099999999995 -1.651119999999998 L -32.37002 7.3460800000000015 C -32.37002 7.3460800000000015 -36.66055 11.856510000000002 -43.13813999999999 8.206650000000002 C -49.61572999999999 4.556790000000001 -47.07589999999999 -1.6511199999999988 -47.07589999999999 -1.6511199999999988 L -38.49046999999999 -14.362599999999999 z" stroke-linecap="round" />
</g>
<g transform="matrix(0.96 0 0 0.96 261.9 246.1)" id="9_LjVxDMvoht3tREumW8Z"  >
<path style="stroke: rgb(71,134,23); stroke-width: 0; stroke-dasharray: none; stroke-linecap: butt; stroke-dashoffset: 0; stroke-linejoin: miter; stroke-miterlimit: 4; fill: rgb(212,20,67); fill-rule: nonzero; opacity: 1;" vector-effect="non-scaling-stroke"  transform=" translate(0, 0)" d="M 0 -172 C 94.944 -172 172 -94.944 172 0 C 172 94.944 94.944 172 0 172 C -94.944 172 -172 94.944 -172 0 C -172 -94.944 -94.944 -172 0 -172 z" stroke-linecap="round" />
</g>
<g transform="matrix(1 0 0 1 264.56 244.02)" id="3T-D0q8oTdKPxOU8mzcMc"  >
<path style="stroke: rgb(255,255,255); stroke-width: 17; stroke-dasharray: none; stroke-linecap: butt; stroke-dashoffset: 0; stroke-linejoin: miter; stroke-miterlimit: 4; fill: rgb(212,20,67); fill-rule: nonzero; opacity: 1;" vector-effect="non-scaling-stroke"  transform=" translate(0, 0)" d="M -84.06132 7.77963 L -84.06132 -29.01282 L -69.02358 -60.69207 L -44.061319999999995 -84.67320000000001 L -10.560099999999991 -95.51549000000001 L 22.485850000000006 -94.10717000000001 L 50.78774000000001 -80.69208 L 69.65566000000001 -60.692080000000004 L 81.91981000000001 -35.61661000000001 L 85.69339000000001 7.779619999999994 L -87.89152 7.779619999999994 L -98.70976 14.824279999999995 L -104.56133 24.637499999999996 L -104.06133 39.30793 L -91.6651 48.34567 L 9.278300000000002 49.289069999999995 L 8.334900000000001 79.30794 L 15.938670000000002 92.6853 L 27.202820000000003 95.51549 L 41.35376 91.74191 L 46.07074 79.30795 L 46.07074 49.289080000000006 L 88.52357 48.34568000000001 L 98.83930000000001 42.82553000000001 L 104.56131 33.251340000000006 L 103.61791000000001 19.307940000000006 C 103.61791000000001 19.307940000000006 99.87104000000001 14.899440000000006 95.43866000000001 11.909510000000004 C 91.00629 8.919580000000003 85.88841000000001 7.3482300000000045 85.88841000000001 7.3482300000000045" stroke-linecap="round" />
</g>
<g transform="matrix(1 0 0 1 264.24 195.27)" id="Kg870n6NKlHDeEVwct94d"  >
<path style="stroke: rgb(255,255,255); stroke-width: 17; stroke-dasharray: none; stroke-linecap: butt; stroke-dashoffset: 0; stroke-linejoin: miter; stroke-miterlimit: 4; fill: rgb(255,255,255); fill-opacity: 0; fill-rule: nonzero; opacity: 1;" vector-effect="non-scaling-stroke"  transform=" translate(0, 0)" d="M -69.34673 -15.27106 L -58.793969999999995 -1.8143700000000003 L -38.69346999999999 9.24091 L -18.59296999999999 14.76855 L 5.527630000000009 15.271059999999999 L 29.64823000000001 12.255979999999997 L 49.24622000000001 2.708239999999998 C 49.24622000000001 2.708239999999998 64.69848 -10.776240000000001 69.34672 -15.27106" stroke-linecap="round" />
</g>
<g transform="matrix(1 0 0 1 262.57 331.15)" id="1Oc0UXRwwwNeBJDTOfkui"  >
<path style="stroke: rgb(255,255,255); stroke-width: 17; stroke-dasharray: none; stroke-linecap: butt; stroke-dashoffset: 0; stroke-linejoin: miter; stroke-miterlimit: 4; fill: rgb(255,255,255); fill-opacity: 0; fill-rule: nonzero; opacity: 1;" vector-effect="non-scaling-stroke"  transform=" translate(0, 0)" d="M -82.57187 -41.70854 L -82.57187 12.060299999999998 L -79.73969000000001 24.120599999999996 L -70.19195 34.170849999999994 L -57.12662 39.69848999999999 L 51.41609 41.70853999999999 L 63.476389999999995 37.68843999999999 L 74.53166999999999 28.85486999999999 L 80.05931 19.59798999999999 L 82.57186999999999 5.025129999999988 L 82.06935999999999 -41.708540000000006" stroke-linecap="round" />
</g>
<g transform="matrix(1 0 0 1.05 216.25 389.04)" id="vKylcOYBkHMXRHAlFDq55"  >
<path style="stroke: rgb(255,255,255); stroke-width: 17; stroke-dasharray: none; stroke-linecap: butt; stroke-dashoffset: 0; stroke-linejoin: miter; stroke-miterlimit: 4; fill: rgb(255,255,255); fill-opacity: 0; fill-rule: nonzero; opacity: 1;" vector-effect="non-scaling-stroke"  transform=" translate(0, 0)" d="M 0.25126 -17.33668 L -0.25125000000000003 17.336689999999997" stroke-linecap="round" />
</g>
<g transform="matrix(1 0 0 1 310.22 391.2)" id="9KS0SQZACYZ5nXdRevO2q"  >
<path style="stroke: rgb(255,255,255); stroke-width: 17; stroke-dasharray: none; stroke-linecap: butt; stroke-dashoffset: 0; stroke-linejoin: miter; stroke-miterlimit: 4; fill: rgb(255,255,255); fill-opacity: 0; fill-rule: nonzero; opacity: 1;" vector-effect="non-scaling-stroke"  transform=" translate(0, 0)" d="M 0.25126 -15.82915 L -0.25125000000000003 15.82914" stroke-linecap="round" />
</g>
</svg>