<svg aria-hidden="true" style="position: absolute; width: 0; height: 0; overflow: hidden;" version="1.1" xmlns="http://www.w3.org/2000/svg" xmlns:xlink="http://www.w3.org/1999/xlink">
<defs>
<symbol id="facebook" viewBox="0 0 32 32">
<path fill="#fea5bb" style="fill: var(--color1, #fea5bb)" d="M16 32c8.837 0 16-7.163 16-16s-7.163-16-16-16-16 7.163-16 16 7.163 16 16 16z"></path>
<path fill="#fff" style="fill: var(--color2, #fff)" d="M20.446 15.981h-2.611v9.619h-3.955v-9.619h-1.88v-3.379h1.88v-2.187c0-1.564 0.739-4.014 3.991-4.014l2.929 0.012v3.281h-2.125c-0.348 0-0.839 0.176-0.839 0.922v1.989h2.955l-0.345 3.377z"></path>
</symbol>
<symbol id="telegram" viewBox="0 0 32 32">
<path fill="#fea5bb" style="fill: var(--color1, #fea5bb)" d="M32 16c0 8.837-7.163 16-16 16s-16-7.163-16-16c0-8.837 7.163-16 16-16s16 7.163 16 16z"></path>
<path fill="#fff" style="fill: var(--color2, #fff)" d="M12.867 18.376l-0.317 4.169c0.455 0 0.651-0.183 0.888-0.401l2.13-1.901 4.414 3.018c0.809 0.421 1.381 0.199 1.6-0.696l2.897-12.673c0.258-1.117-0.433-1.554-1.221-1.28l-17.032 6.086c-1.162 0.422-1.145 1.026-0.198 1.301l4.355 1.264 10.114-5.907c0.476-0.295 0.909-0.132 0.553 0.163l-8.182 6.856z"></path>
</symbol>
<symbol id="github" viewBox="0 0 32 32">
<path fill="#fea5bb" style="fill: var(--color1, #fea5bb)" d="M32 16c0 8.837-7.163 16-16 16s-16-7.163-16-16c0-8.837 7.163-16 16-16s16 7.163 16 16z"></path>
<path fill="#fff" style="fill: var(--color2, #fff)" d="M16 6.588c-5.17 0-9.412 4.242-9.412 9.412 0 4.411 3.096 8.419 7.206 9.412v-3.113c-0.408 0.088-0.781 0.091-1.196-0.031-0.556-0.164-1.008-0.535-1.344-1.099-0.214-0.36-0.593-0.753-0.988-0.724l-0.097-1.098c0.856-0.073 1.594 0.521 2.033 1.258 0.196 0.328 0.421 0.52 0.709 0.605 0.278 0.083 0.577 0.043 0.925-0.080 0.088-0.697 0.408-0.958 0.649-1.327-2.452-0.365-3.429-1.666-3.816-2.692-0.514-1.364-0.238-3.066 0.67-4.143 0.018-0.021 0.050-0.075 0.038-0.113-0.417-1.259 0.090-2.3 0.109-2.41 0.481 0.141 0.559-0.143 2.089 0.786l0.264 0.159c0.111 0.066 0.075 0.028 0.186 0.019 0.59-0.166 1.269-0.266 1.97-0.276l0.006-0c0.668 0.008 1.336 0.104 2.002 0.284l0.086 0.009c-0.008-0.002 0.024-0.006 0.075-0.037 1.911-1.158 1.842-0.779 2.355-0.946 0.019 0.111 0.519 1.169 0.106 2.411-0.056 0.171 1.656 1.739 0.708 4.256-0.388 1.026-1.365 2.328-3.816 2.693 0.314 0.48 0.692 0.734 0.69 1.722v3.886c4.109-0.993 7.206-5 7.206-9.412 0-5.17-4.242-9.412-9.412-9.412z"></path>
</symbol>
<symbol id="logo" viewBox="0 0 33 32">
<path d="M33.407 16c0 8.837-7.478 16-16.703 16s-16.703-7.163-16.703-16c0-8.837 7.478-16 16.703-16s16.703 7.163 16.703 16z"></path>
<path d="M23.593 7.957c1.449 1.779 2.395 4.062 2.724 6.513 0.028 0.212 0.052 0.425 0.072 0.639 0.888 0.239 1.5 0.633 1.867 1.196 0.389 0.597 0.418 1.262 0.418 1.756 0 0.634-0.129 1.262-0.467 1.793-0.347 0.545-0.879 0.932-1.574 1.125-0.030 0.008-0.060 0.014-0.084 0.018 0.003 0.125 0.007 0.255 0.011 0.389 0.024 0.842 0.053 1.825-0.035 2.718-0.113 1.145-0.428 2.385-1.304 3.356-0.125 0.139-0.262 0.272-0.411 0.398-0.721 0.612-1.579 1.005-2.475 1.262 0.048 0.115 0.075 0.242 0.075 0.375v1.546c0 0.538 0.447-0.163-0.96 0.303-1.349 0.324-0.989 0.787-0.989 0.249v-2.098l0-0.012c-1.273 0.151-2.591 0.151-3.738 0.151h-0.070c-0.943 0-1.984 0-3.016-0.084 0.002 0.028 0.004 0.056 0.004 0.084l-0.004 2.096c0.78 0.12 0 0-0.978-0.203-1.407-0.399-0.352-0.183-0.967-0.26v-1.633c0-0.126 0.024-0.246 0.067-0.357-1.096-0.245-2.167-0.669-3.052-1.42-1.197-1.016-1.62-2.551-1.783-3.929-0.12-1.018-0.11-2.099-0.097-3.005-1.209-0.412-2.096-1.522-2.096-2.863 0-1.409 0.98-2.563 2.283-2.92 0.020-0.225 0.044-0.449 0.074-0.671 0.329-2.451 1.275-4.733 2.724-6.513 1.827-2.244 4.306-3.505 6.89-3.505s5.062 1.261 6.89 3.505zM16.746 11.426c1.791 0.014 3.607-0.742 5.189-2.415-1.486-1.735-3.371-2.611-5.232-2.611-1.88 0-3.784 0.894-5.277 2.664 1.694 1.584 3.553 2.349 5.319 2.362zM10.319 10.691c-0.615 1.127-1.048 2.412-1.261 3.779h15.29c-0.216-1.386-0.658-2.687-1.286-3.826-1.849 1.82-4.051 2.748-6.331 2.73-2.254-0.018-4.477-0.957-6.411-2.683zM8.961 21.104l-0.186-0.002c-0.012 0.853-0.017 1.737 0.085 2.598 0.145 1.23 0.485 2.143 1.109 2.672 0.713 0.605 1.702 0.951 2.906 1.131s2.512 0.182 3.813 0.182h0.003c1.301 0 2.646-0.002 3.886-0.183 1.246-0.182 2.264-0.53 2.972-1.131 0.627-0.532 0.928-1.355 1.037-2.461 0.076-0.768 0.053-1.526 0.029-2.307-0.005-0.177-0.011-0.355-0.015-0.534-0.111 0.003-0.223 0.006-0.336 0.008-0.053 0.001-0.105 0.003-0.158 0.004-0.248 0.006-0.495 0.012-0.731 0.018l-0.002 0c-0.097 0.002-0.192 0.005-0.285 0.007-0.203 0.005-0.394 0.010-0.565 0.014-0.22 0.006-0.405 0.011-0.541 0.015-0.073 0.002-0.123 0.004-0.153 0.005-0.005 0.23-0.012 0.471-0.019 0.713-0.014 0.475-0.032 0.955-0.054 1.339-0.011 0.191-0.023 0.365-0.036 0.505-0.011 0.108-0.028 0.282-0.072 0.412-0.136 0.408-0.338 0.788-0.601 1.114s-0.582 0.595-0.946 0.782c-0.365 0.188-0.763 0.288-1.171 0.288s-0.806-0.1-1.171-0.288c-0.364-0.187-0.684-0.456-0.946-0.782s-0.465-0.706-0.601-1.114c-0.044-0.131-0.061-0.304-0.072-0.412-0.014-0.14-0.026-0.314-0.036-0.505-0.022-0.384-0.040-0.863-0.054-1.339-0.007-0.239-0.013-0.48-0.019-0.708-3.068-0.010-5.66-0.031-7.069-0.043h-0.001zM25.889 16.417h-18.019c-0.992 0-1.746 0.763-1.746 1.644s0.754 1.644 1.746 1.644c0.054 0 0.155 0.001 0.299 0.002 0.191 0.001 0.458 0.004 0.79 0.006h0.001c1.433 0.012 4.089 0.033 7.188 0.043h1.252c0 0.172 0.014 1.114 0.042 2.057 0.014 0.471 0.032 0.936 0.052 1.302 0.010 0.184 0.021 0.336 0.032 0.45 0.006 0.065 0.011 0.102 0.014 0.12 0.001 0.006 0.001 0.009 0.001 0.011 0.087 0.253 0.21 0.475 0.357 0.657 0.151 0.188 0.322 0.327 0.499 0.418s0.356 0.133 0.534 0.133c0.177 0 0.358-0.043 0.534-0.133s0.348-0.23 0.499-0.418c0.147-0.182 0.269-0.404 0.357-0.657 0 0 0-0.002 0-0.003s0.001-0.005 0.001-0.008c0.002-0.017 0.008-0.055 0.014-0.12 0.011-0.113 0.022-0.266 0.032-0.45 0.021-0.366 0.038-0.831 0.052-1.302 0.028-0.943 0.042-1.885 0.042-2.057h1.229c0.067-0.004 0.162-0.007 0.249-0.010 0.139-0.004 0.328-0.009 0.548-0.015 0.25-0.006 0.542-0.013 0.853-0.021l0.010-0c0.234-0.006 0.479-0.012 0.722-0.017 0.572-0.014 1.14-0.029 1.575-0.042 0.218-0.007 0.399-0.013 0.529-0.019 0.058-0.003 0.103-0.005 0.135-0.007 0.361-0.111 0.581-0.296 0.722-0.517 0.156-0.245 0.249-0.59 0.249-1.046 0-0.469-0.043-0.768-0.192-0.996-0.131-0.2-0.424-0.464-1.201-0.648z"></path>
</symbol>
<symbol id="icon-close" viewBox="0 0 32 32">
<path  stroke="#fff" style="stroke: var(--color1, #fff)" stroke-linejoin="miter" stroke-linecap="butt" stroke-miterlimit="4" stroke-width="2" d="M2.519 2l26.963 28"></path>
<path  stroke="#fff" style="stroke: var(--color1, #fff)" stroke-linejoin="miter" stroke-linecap="butt" stroke-miterlimit="4" stroke-width="2" d="M2 29.481l28-26.963"></path>
</symbol>
<symbol id="icon-open-menu" viewBox="0 0 46 32">
<path  stroke="#d41443" style="stroke: var(--color2, #d41443)" stroke-linejoin="miter" stroke-linecap="butt" stroke-miterlimit="4" stroke-width="2.2857" d="M0 2.286h45.714"></path>
<path  stroke="#d41443" style="stroke: var(--color2, #d41443)" stroke-linejoin="miter" stroke-linecap="butt" stroke-miterlimit="4" stroke-width="2.2857" d="M0 16h45.714"></path>
<path  stroke="#d41443" style="stroke: var(--color2, #d41443)" stroke-linejoin="miter" stroke-linecap="butt" stroke-miterlimit="4" stroke-width="2.2857" d="M0 29.714h45.714"></path>
</symbol>
</defs>
</svg>
