<svg width="95" height="91" viewBox="0 0 95 91" fill="none" xmlns="http://www.w3.org/2000/svg">
<path d="M95 45.5C95 70.629 73.7335 91 47.5 91C21.2665 91 0 70.629 0 45.5C0 20.371 21.2665 0 47.5 0C73.7335 0 95 20.371 95 45.5Z" fill="#D41443"/>
<path fill-rule="evenodd" clip-rule="evenodd" d="M67.0928 22.6269C71.2135 27.6872 73.9023 34.1774 74.8388 41.1478C74.9198 41.7503 74.9876 42.3563 75.0422 42.9653C77.5686 43.6449 79.3065 44.7643 80.3525 46.3678C81.46 48.0656 81.5417 49.9567 81.5417 51.3618C81.5417 53.1647 81.1753 54.95 80.2133 56.4609C79.2269 58.0101 77.714 59.1112 75.7386 59.6603C75.6526 59.6841 75.569 59.7007 75.501 59.7119C75.51 60.0685 75.5208 60.4377 75.5318 60.8168C75.6013 63.2123 75.6824 66.0072 75.4319 68.546C75.1105 71.8025 74.2155 75.3286 71.7229 78.0889C71.3668 78.4833 70.9781 78.862 70.5538 79.222C68.5039 80.9617 66.0635 82.0813 63.5164 82.8121C63.6535 83.1403 63.7292 83.5004 63.7292 83.8783V88.275C63.7292 89.8046 65 87.8126 61 89.1361C57.1631 90.0578 58.1875 91.3732 58.1875 89.8437V83.8783L58.1877 83.8447C54.5676 84.274 50.8191 84.2739 47.5576 84.2739H47.3585C44.6782 84.2739 41.717 84.274 38.7814 84.034C38.7882 84.1131 38.7917 84.1931 38.7917 84.2739L38.7814 90.2352C41 90.5775 38.7814 90.2352 36 89.6574C32 88.5225 35 89.1361 33.25 88.917V84.2739C33.25 83.9158 33.318 83.5736 33.4418 83.2595C30.3264 82.5631 27.2793 81.3581 24.7624 79.2221C21.357 76.3321 20.155 71.9672 19.6928 68.0493C19.3513 65.1545 19.3795 62.0807 19.4177 59.5034C15.9807 58.3307 13.4583 55.1739 13.4583 51.3618C13.4583 47.3557 16.2442 44.0732 19.9497 43.0567C20.0056 42.4169 20.0762 41.7804 20.1612 41.1478C21.0977 34.1774 23.7865 27.6872 27.9073 22.6269C33.1036 16.2458 40.1513 12.6609 47.5 12.6609C54.8487 12.6609 61.8964 16.2458 67.0928 22.6269ZM47.6206 32.493C52.7137 32.5328 57.8783 30.3832 62.3776 25.624C58.1518 20.6909 52.7918 18.2 47.5 18.2C42.1544 18.2 36.7393 20.7418 32.4939 25.7752C37.3118 30.2807 42.5978 32.4538 47.6206 32.493ZM29.3451 30.4017C27.5968 33.607 26.3652 37.2613 25.7601 41.1478L69.2399 41.1478C68.6264 37.2075 67.3689 33.5057 65.5819 30.2686C60.3246 35.4453 54.0624 38.0826 47.5773 38.032C41.1679 37.9819 34.8465 35.3103 29.3451 30.4017ZM25.4837 60.0157L24.9552 60.0114C24.9212 62.4376 24.9073 64.9501 25.1964 67.4006C25.6091 70.899 26.5765 73.4952 28.3491 74.9996C30.3781 76.7215 33.1901 77.7031 36.6129 78.2162C40.0355 78.7294 43.7551 78.7348 47.4566 78.7348H47.465C51.1642 78.7348 54.9889 78.7297 58.5166 78.2147C62.0598 77.6974 64.9534 76.7086 66.9671 74.9996C68.751 73.4857 69.6066 71.1475 69.917 68.0023C70.1324 65.8191 70.0676 63.6616 70.0008 61.4405C69.9857 60.9385 69.9705 60.4324 69.9585 59.9228C69.6432 59.9309 69.3236 59.9389 69.0029 59.9469C68.8534 59.9506 68.7035 59.9543 68.5537 59.958C67.8492 59.9753 67.1462 59.9923 66.4739 60.0085L66.4672 60.0086C66.191 60.0153 65.92 60.0218 65.6563 60.0282C65.0792 60.0422 64.5368 60.0554 64.0502 60.0677C63.4248 60.0835 62.8974 60.0976 62.5123 60.1094C62.3033 60.1158 62.1631 60.121 62.0773 60.1242C62.0619 60.7772 62.0438 61.4648 62.0233 62.1508C61.9827 63.5026 61.9318 64.8658 61.8702 65.958C61.8395 66.5022 61.8053 66.9963 61.7666 67.3952C61.7367 67.7034 61.686 68.1957 61.5623 68.5668C61.1751 69.7284 60.6 70.8076 59.8539 71.7347C59.1074 72.6623 58.198 73.427 57.1631 73.9596C56.1258 74.4936 54.9928 74.7783 53.8333 74.7783C52.6739 74.7783 51.5408 74.4936 50.5035 73.9596C49.4687 73.427 48.5593 72.6624 47.8128 71.7347C47.0667 70.8076 46.4916 69.7284 46.1044 68.5668C45.9807 68.1957 45.9299 67.7034 45.9001 67.3952C45.8614 66.9963 45.8271 66.5022 45.7965 65.958C45.7349 64.8658 45.684 63.5026 45.6434 62.1508C45.623 61.4697 45.6051 60.7869 45.5897 60.1381C36.8654 60.109 29.4947 60.0486 25.4862 60.0157L25.4837 60.0157ZM73.6213 46.687C75.8303 47.2083 76.6653 47.9594 77.0367 48.5287C77.4608 49.179 77.5833 50.0275 77.5833 51.3618C77.5833 52.6592 77.3168 53.641 76.8739 54.3366C76.4736 54.9652 75.8488 55.4911 74.8218 55.8064C74.7317 55.8123 74.6043 55.8192 74.4384 55.8269C74.0687 55.8439 73.5535 55.8624 72.9345 55.882C71.6989 55.9209 70.0817 55.9627 68.4563 56.0027C67.7638 56.0197 67.0689 56.0365 66.4025 56.0525L66.3999 56.0526L66.375 56.0532C65.4919 56.0745 64.6597 56.0945 63.9502 56.1124C63.3238 56.1283 62.7873 56.1426 62.3908 56.1547C62.1426 56.1624 61.8717 56.1707 61.6815 56.1826H58.1875C58.1875 56.6707 58.1472 59.3493 58.0667 62.0322C58.0265 63.3717 57.9768 64.6947 57.9181 65.7354C57.8887 66.2576 57.8579 66.6915 57.8267 67.0137C57.8088 67.1984 57.7941 67.3049 57.7873 67.3543C57.7859 67.3644 57.7849 67.3721 57.7842 67.3776C57.7837 67.3813 57.7833 67.3858 57.7833 67.3858C57.5352 68.105 57.1862 68.737 56.7695 69.2549C56.3398 69.7889 55.8528 70.1838 55.3509 70.4422C54.8514 70.6993 54.3373 70.8217 53.8333 70.8217C53.3294 70.8217 52.8153 70.6993 52.3158 70.4422C51.8138 70.1838 51.3269 69.7889 50.8972 69.2549C50.4804 68.737 50.1315 68.105 49.8834 67.3858C49.8831 67.3813 49.8817 67.3711 49.8793 67.3543C49.8725 67.3049 49.8578 67.1984 49.8399 67.0137C49.8087 66.6915 49.778 66.2576 49.7485 65.7354C49.6899 64.6947 49.6402 63.3717 49.6 62.0322C49.5195 59.3493 49.4792 56.6707 49.4792 56.1826H45.9198C37.1061 56.1542 29.5544 56.0924 25.4791 56.0591L25.4773 56.0591C24.5324 56.0514 23.7746 56.0452 23.2313 56.0413C22.8223 56.0384 22.535 56.0367 22.381 56.0367C19.5596 56.0367 17.4167 53.8658 17.4167 51.3618C17.4167 48.8579 19.5596 46.687 22.381 46.687H73.6213Z" fill="white"/>
</svg>
